<svg xmlns="http://www.w3.org/2000/svg" viewBox="0 0 25.93 16.43"><defs><style>.cls-1{fill:gray;}</style></defs><title>fleche</title><g id="AMOUR"><g id="réponse_amour" data-name="réponse amour"><g id="titre"><path class="cls-1" d="M21.14,9.64H1.42a1.43,1.43,0,0,1,0-2.85H21.14a1.43,1.43,0,1,1,0,2.85Z"/><path class="cls-1" d="M25.19,9.75l-8.14,6.36a1.4,1.4,0,0,1-.91.32A1.47,1.47,0,0,1,14.72,15a1.6,1.6,0,0,1,.51-1.19l7.15-5.65-7-5.52a1.82,1.82,0,0,1-.63-1.23A1.47,1.47,0,0,1,16.14,0a1.4,1.4,0,0,1,.91.32l8.14,6.35A2,2,0,0,1,25.19,9.75Z"/></g></g></g></svg>