<svg xmlns="http://www.w3.org/2000/svg" viewBox="0 0 638.89 638.89"><defs><style>.cls-1{fill:none;}.cls-2{fill:#e12547;}.cls-3{fill:#446dde;}.cls-4{fill:blue;}</style></defs><title>cercle-19</title><g id="FIDELITE"><g id="data_fidelite" data-name="data fidelite"><path class="cls-1" d="M130.18,532.08l1.65-1.65C131.25,531,130.71,531.52,130.18,532.08Z"/><path class="cls-1" d="M529.46,132.8l2.56-2.56A32.55,32.55,0,0,0,529.46,132.8Z"/><path class="cls-2" d="M504.29,108a33.46,33.46,0,0,0-3.63-51.7C376.19-29.61,204.32-17.22,93.55,93.55-17.6,204.71-29.7,377.38,57.22,502a33.45,33.45,0,0,0,26.49,13,33.11,33.11,0,0,0,21.7-8L504.32,108.06Z"/><path class="cls-3" d="M579.29,133.57l0,0A33,33,0,0,0,532,130.24l-2.56,2.56-2,2L133.24,529l.09.11c-.51.42-1,.85-1.5,1.3l-1.65,1.65a32.33,32.33,0,0,0,2.14,46.31c124.89,90.48,300.48,79.48,413-33C657.49,433.18,668.8,258.39,579.29,133.57Z"/><path class="cls-4" d="M133.33,529.13l-.09-.11-1.41,1.41C132.31,530,132.82,529.55,133.33,529.13Z"/></g></g></svg>