<svg id="amour" xmlns="http://www.w3.org/2000/svg" viewBox="0 0 388.38 322.71"><defs><style>.cls-1{fill:#e12547;}.cls-2{fill:#e54770;}.cls-3,.cls-4{fill:none;stroke:#000;stroke-miterlimit:10;stroke-width:3.75px;}.cls-4{stroke-linecap:round;}</style></defs><title>amour-oui</title><circle class="cls-1" cx="97.09" cy="97.09" r="97.09"/><circle class="cls-2" cx="291.28" cy="97.09" r="97.09"/><path class="cls-1" d="M97.09,211.07a113.58,113.58,0,0,1-44.4-9c57.51,65.15,141.5,120.61,141.5,120.61V156.81A113.9,113.9,0,0,1,97.09,211.07Z"/><path class="cls-2" d="M291.28,211.07a113.59,113.59,0,0,0,44.41-9c-57.51,65.15-141.5,120.61-141.5,120.61V156.81A113.89,113.89,0,0,0,291.28,211.07Z"/><circle cx="101.35" cy="86.15" r="4.64"/><circle cx="227.08" cy="65.05" r="4.64"/><circle cx="143.11" cy="79.41" r="4.64"/><path class="cls-3" d="M86.07,120.83c2.45-4.56,8.83-4.66,13.12-2,5.33,3.23,9.89,9.33,17.18,11.65,10.58,3.37,21.5-2.89,23.3,4.91,1.84,8-19.62,10.81-29.46,8C94,138.83,81.46,129.44,86.07,120.83Z"/><path class="cls-4" d="M141.06,246.84s18.34,4,52.93,4,45.34-9.06,45.34-9.06"/><path class="cls-4" d="M229.74,233.76a77.9,77.9,0,0,0-6.9,14s5.21,7.51,11.8,9"/><path class="cls-4" d="M253,221.5s-41.84.63-59.27-3.91-25.76-9.1-25.76-9.1"/><path class="cls-4" d="M179.58,213.33s-3.14-8.07-4.12-10.56"/><path class="cls-4" d="M179.58,213.54s-7.53,2.57-12,1.51"/><path d="M223.37,105.93c14.67-1,23.29-5.88,24.91-14a1.88,1.88,0,0,0-3.68-.73c-1.67,8.34-14.18,10.46-21.49,11-8.75.62-23.08-2-28.91-4.28,0,1.34,0,2.68.11,4C201.6,104.34,215.05,106.52,223.37,105.93Z"/></svg>