<svg xmlns="http://www.w3.org/2000/svg" viewBox="0 0 456.32 322.71"><defs><style>.cls-1{fill:#446dde;}.cls-2{fill:#6289c6;}.cls-3{fill:none;stroke:#000;stroke-linecap:round;stroke-miterlimit:10;stroke-width:3.75px;}</style></defs><title>amour-oui</title><g id="pas_amour" data-name="pas amour"><circle class="cls-1" cx="97.09" cy="97.09" r="97.09"/><circle class="cls-2" cx="359.2" cy="121.45" r="97.09"/><path class="cls-1" d="M97.09,211.07a113.58,113.58,0,0,1-44.4-9c57.51,65.15,141.5,120.61,141.5,120.61V156.81A113.9,113.9,0,0,1,97.09,211.07Z"/><path class="cls-2" d="M336.08,233.06a113.75,113.75,0,0,0,45.31.22c-69.53,52.13-163,89.4-163,89.4L252,160.23A113.93,113.93,0,0,0,336.08,233.06Z"/><path class="cls-3" d="M124.32,231.29s-5.17,31-23.24,49"/><path class="cls-3" d="M310.54,245.46s-1.23,31.39,12.8,52.75"/><circle cx="422.75" cy="134.33" r="4.64"/><path d="M398.23,173a2.19,2.19,0,0,1-.48-.25,1.88,1.88,0,0,1,1.74-3.29c13.89,4.92,24.78,15.38,28.89,19.73-.88.9-1.77,1.79-2.68,2.65C421.86,187.74,411.3,177.57,398.23,173Z"/><circle cx="33.54" cy="82.5" r="4.64"/><path d="M37.69,121a1.88,1.88,0,1,1,2.11,3.11c-6.89,4.66-23.6,9.25-31.63,11.27-.5-1.15-1-2.33-1.42-3.51C14.36,130,31.21,125.39,37.69,121Z"/></g></svg>