<svg xmlns="http://www.w3.org/2000/svg" viewBox="0 0 580.2 242.01"><defs><style>.cls-1{fill:#e12547;}.cls-2{fill:none;stroke:#e96e81;stroke-linecap:round;stroke-miterlimit:10;stroke-width:11px;}.cls-3{fill:#e96e81;}.cls-4{fill:#e85167;}.cls-5{fill:#d41739;}.cls-6{fill:#d9183b;}.cls-7{fill:#d90f47;}</style></defs><title>réponse-oui-amour</title><g id="AMOUR"><g id="réponse_amour" data-name="réponse amour"><g id="oui-5" data-name="oui"><circle class="cls-1" cx="89.71" cy="150.14" r="89.71"/><path class="cls-1" d="M414.73,101a41.31,41.31,0,1,0-79,23.56l-.09,0a25.17,25.17,0,1,1-48.92,10.35,26,26,0,0,1,.07-5.3,41.31,41.31,0,1,0-81.67-12.08A107.72,107.72,0,1,0,414.73,101Z"/><path class="cls-2" d="M519.52,105.91c-6.57,7.66-19.16,22.45-19.16,40.79s-2.82,58.44-6.3,67.36c-6.85,17.52-16.7,22.45-16.7,22.45"/><path class="cls-3" d="M496.26,166.78c1.85-8.94-.67-14.94-15.12-19s-21.34-5.55-28.7-10.93c-3.3-2.42-8.53-4.56-9.21-4.56s-4.43,26.3,16.65,36.5S494.35,176,496.26,166.78Z"/><path class="cls-3" d="M503.36,179.44c-.9,5.17,11.2,12.51,19.34,7.7s8-12.42,10.24-16,3.59-4.73,3.59-5.08-11.2,1.23-15.49.53S506,164.39,503.36,179.44Z"/><path class="cls-4" d="M523.75,29.43s-3.93-17,1.1-24.4S536-.11,538.42,2.52s5.36,10.61,3.61,15.75-10.95,20.46-10.95,20.46Z"/><path class="cls-5" d="M566.86,6.67c3.07.64,7.55,15,1.1,32.94S535.68,66.3,535.68,66.3L523,57.11S532.18-.55,566.86,6.67Z"/><path class="cls-6" d="M529,56.13s12.58,5.25,23.63-1.64,17.29-22.65,19.36-25,4.38-2.52,6.46-1.64,2.73,4.49-.55,8.42-1.64,30-3.94,35.56-16.74,32-37.09,25.5S529,56.13,529,56.13Z"/><path class="cls-1" d="M501.7,12c.95-2.78,4.89-2.6,9.78.61S526.75,24.54,529,33.7s-2.9,16.5,4.28,27,7.94,26.89-2,31.32-32.61-2.22-36.81-16c-4.25-14-2.28-24,1.33-29.62S505.92,30.2,505.7,26.7,500.43,15.71,501.7,12Z"/><path class="cls-7" d="M501.84,81.53c9,.12,30.25,5.32,35.14,11.74s-.61,14.35-8.7,11.91-16.65-4.43-27.34-3.21-24.45,2.17-25.05-6C475.12,85.78,491.91,81.39,501.84,81.53Z"/></g></g></g></svg>