<svg xmlns="http://www.w3.org/2000/svg" viewBox="0 0 346.48 287.9"><defs><style>.cls-1{fill:#e12547;}.cls-2{fill:none;stroke:#fff;stroke-linecap:round;stroke-miterlimit:10;stroke-width:50.41px;}.cls-3{fill:#fff;}</style></defs><title>accueil-coeur</title><g id="acceuil"><path class="cls-1" d="M341.32,116.23h0a86.63,86.63,0,1,0-168-29.62c0,.64,0,1.28,0,1.93l0,0c0-.66,0-1.32,0-2a86.62,86.62,0,1,0-167.9,30l-.07,0c33.2,86.13,168,171.3,168,171.3h0s129.25-84.17,165.33-165.07q1.2-2.62,2.24-5.34C341,117.07,341.16,116.65,341.32,116.23Z"/><path class="cls-2" d="M130.2,99.2a43.18,43.18,0,0,1,86.35,0c0,17.92-9.88,32.87-26.47,39.83s-16.69,37.2-16.69,37.2"/><circle class="cls-3" cx="173.44" cy="219.9" r="24.57"/></g></svg>