<svg xmlns="http://www.w3.org/2000/svg" viewBox="0 0 223.98 276.62"><defs><style>.cls-1{fill:#446dde;}.cls-2{fill:#6289c6;}.cls-3{fill:none;stroke:#000;stroke-linecap:round;stroke-miterlimit:10;stroke-width:3.75px;}</style></defs><title>fidélité-cadenas-couple</title><g id="APPLI"><g id="appli_" data-name="appli?"><g id="tel_triste" data-name="tel triste"><path class="cls-1" d="M103.44,243.74l81.65-8.05c11,2.05,20.13-4.39,20.35-14.41L190.6,21.84C189.46,7.37,181.63.19,171.07,0L88.48,3.61C77.11,4.16,68.35,8,68.13,18L83.91,221.89C83.68,231.91,92.43,241.68,103.44,243.74Z"/><path class="cls-2" d="M103.3,203.17l73.19-7.83c11.89-1.66,20.88-8.94,17.76-23.14L185.64,28c.2-9.73-7.48-20.8-17.5-21.24l-74,3.51c-9.17-.48-18,4.28-18.24,14L85.8,181.92C85.59,191.66,93.43,201.17,103.3,203.17Z"/><circle cx="122.82" cy="165.38" r="4.64"/><circle cx="153.05" cy="161.37" r="4.64"/><path class="cls-3" d="M56.31,242c-2.11-4.64-.84-9.28.42-15.61s8.86-40.92,21.94-50.2"/><path class="cls-3" d="M221.85,241.21c2.11-4.64-9.28-56.53-22.36-65.81"/><path class="cls-3" d="M127.75,237.57s10.26,35,7.76,35-10.36-.12-14.37-.87"/><path class="cls-3" d="M164.54,233.56c1.75,3.51,11.76,35,11,35s-14.08,2-15.83.7"/><path class="cls-1" d="M42.68,238.62s7.76-7.26,16.51-4.25,11.26,14.51,6.51,20-22,17.77-22,17.77-10.51,8.76-25.52,1.75S-4.11,255.64,2.39,248.13c0,0,5.26-3.5,9.51-1.75s5.26,7.25,5.26,7.25l5.25,1.5,2.25,8,5,.5,3.75,6.76,8.26,1.75-3.26-6.26,3.76-7.25-4-6,6-4.75-2.75-4Z"/><path class="cls-3" d="M139.51,217.3c6-.25,19.52,3,22.27,6"/></g></g></g></svg>