<svg xmlns="http://www.w3.org/2000/svg" viewBox="0 0 134.35 190.08"><title>eeb</title><g id="ENFANTS"><g id="data_enfants" data-name="data enfants"><g id="bebe"><path d="M116.33,87.49a4.78,4.78,0,0,0-2.59,7.62l.09.1a4.78,4.78,0,0,0,5.35,1.51l2-.25,1.23-.16,2.2-14.74c-.42.38-.83.77-1.27,1.14A41.63,41.63,0,0,1,116.33,87.49Z"/><path d="M110.64,175.38c-3.13-.78-6.2-1.55-9.06-2.25a107.17,107.17,0,0,0-57.71,1.93,4.45,4.45,0,0,0-.51.19c-3.83,1.74-15.54,6-23.6,5.17-1.67-.14-4.7-4-5.9-7.48-.83-2.43-1.45-4.14-1.93-5.45a20.32,20.32,0,0,1-1.6-6.22,6.15,6.15,0,0,1,1.14-4.48,2.39,2.39,0,0,1,1.76-1,9.29,9.29,0,0,1,1.87.06c2,.29,3,1.42,3.48,3.67.61,2.77,3.29,5.62,8.84,4.51,6.61-1.32,21.16-9.53,19.36-19.41a4.92,4.92,0,0,0-.47-1.35A41.44,41.44,0,0,1,48,102.11a4.77,4.77,0,0,0,.6-3.65,4.72,4.72,0,0,0-2.18-3c-3.83-2.3-6.61-3.92-8.9-5.26-6.39-3.72-8.78-5.11-19.42-12.83-8-5.82-8.67-9.74-8.58-11.15a4,4,0,0,1,2.16-3.14c1.25-.67,2.66-.22,5.36.9,2,.83,4.27,1.76,6.75,1.49,5-.57,6.19-3.8,6.77-5.35a3.56,3.56,0,0,1,1.31-1.91c.11-.09.35,0,.46,0s0,.82,0,.83c-3.48,11,10,18.05,25.6,26.2l2.76,1.44a4.77,4.77,0,0,0,5.71-7.48A41.4,41.4,0,0,1,55.25,51.82a4.83,4.83,0,0,0-4.35-4.66l-.17,0a4.9,4.9,0,0,1-3.95-5.69,5,5,0,0,1,5.69-3.94l.41.1a4.75,4.75,0,0,0,5.64-2.76A41.67,41.67,0,0,1,104.09,10.2a41,41,0,0,1,27.47,18.36c.28.45.54.91.81,1.36l2-13.29A51,51,0,0,0,51.24,27.89,14.44,14.44,0,0,0,45.91,55.6a50.69,50.69,0,0,0,3.28,13.94c-4.69-2.92-8.33-5.8-7.77-7.57A9.92,9.92,0,0,0,25.84,50.86a12.89,12.89,0,0,0-3.76,4.86c-.45-.17-1-.38-1.37-.55-3.05-1.26-8.17-3.37-13.53-.47A13.4,13.4,0,0,0,0,65.61c-.3,4.54,1.62,11.62,12.5,19.51s13.71,9.56,20.21,13.35c1.38.8,2.94,1.71,4.8,2.81a51,51,0,0,0-.24,45.36c-.73,2.1-6.49,6.5-10.38,7.78-2.38-5.53-7.52-8.52-14.26-8.12a12,12,0,0,0-8.52,4.38A15.67,15.67,0,0,0,.85,162.42,29.22,29.22,0,0,0,3,170.74C3.42,172,4,173.68,4.83,176c1.49,4.36,6.19,12.74,13.48,13.83l.43,0c11.53,1.25,26.05-4.86,28.28-5.84A97.81,97.81,0,0,1,99.3,182.4l9.55,2.37.38.1Z"/></g></g></g></svg>