<svg xmlns="http://www.w3.org/2000/svg" viewBox="0 0 184.15 206.94"><defs><style>.cls-1{fill:none;stroke:#000;stroke-linecap:round;stroke-linejoin:round;stroke-width:9.55px;}</style></defs><title>eeb</title><g id="ENFANTS"><g id="data_enfants" data-name="data enfants"><g id="bebe"><path class="cls-1" d="M138.26,102.34c15.14-7.91,14.46-6.86,29.69-16.58,15.79-10.08,12.14-18.91,7.2-22-5.18-3.21-10.57,1.6-13.92,1-3.85-.67-1.41-3-5.21-6.52-3.39-3.14-9.85-.48-8.34,5.51,2,7.81-12.29,13.62-27.29,20.39l.12.08a46.19,46.19,0,0,0,14-29.58h.21a9.67,9.67,0,1,0-2.32-19.2l-.41.07A46.22,46.22,0,0,0,42.43,46.37l-.82.06a9.66,9.66,0,1,0,2.31,19.19c.21,0,.41-.07.61-.1A46.18,46.18,0,0,0,65.41,91.09c-16.18-3-31.4-5.26-31.35-13.32,0-6.17-6.86-7.22-9.41-3.37-2.85,4.33.06,6-3.51,7.57-3.12,1.36-9.5-2-13.77,2.32-4.06,4.15-5.51,13.59,12.22,19.63,17.1,5.82,16.19,5,32.78,9a46.19,46.19,0,0,0,11.72,44.47c3.54,6.8-12,21.74-14.16,18s-5.93-6.4-12-4.1c-4.78,1.8-5.94,7.79-3.85,12.47,1.87,4.17,2.06,3.75,7.31,11,2.22,3,7.8,8.22,12.62,7.28,11-2.12,23.27-13,23.27-13a102.45,102.45,0,0,1,52.13-18c12.93-.77,30.1-1.5,37.86-2.54,0,0,7.64-.15,8.76-12s.56-17.5-5.71-18.85-10.64,2.94-11.11,7.33-20,3.52-18.23-4.8c.12-.58.21-1.12.27-1.64a46.2,46.2,0,0,0-3.67-35.73"/></g></g></g></svg>