<svg xmlns="http://www.w3.org/2000/svg" viewBox="0 0 552.82 194.76"><defs><style>.cls-1,.cls-3{fill:#e75c79;}.cls-1{opacity:0.69;}.cls-2{fill:#e12547;}.cls-4{fill:none;stroke:#e12547;stroke-linecap:round;stroke-miterlimit:10;stroke-width:3px;}.cls-5{fill:#eb345c;opacity:0.92;}</style></defs><title>reÌponse-oui-sexe</title><g id="SEXE"><g id="oui"><circle class="cls-1" cx="89.71" cy="104.54" r="89.71"/><path class="cls-2" d="M414.73,55.38a41.31,41.31,0,1,0-79,23.56l-.09,0a25.17,25.17,0,1,1-48.92,10.35,26,26,0,0,1,.07-5.3,41.31,41.31,0,1,0-81.67-12.08A107.72,107.72,0,1,0,414.73,55.38Z"/><circle class="cls-3" cx="89.71" cy="104.54" r="25.35"/><circle class="cls-2" cx="89.71" cy="104.54" r="8.47"/><path class="cls-1" d="M529.94.89C544,5.66,564.82,61.12,544.05,114.63s-49,85.54-82.26,72.89c-24.87-9.45-45.56-53.32-17.38-113.38S514-4.52,529.94.89Z"/><path class="cls-3" d="M507.74,32.1s-10.66,18.92-21,25.8-28.7,20.67-31.57,46.88-1.91,47.44,5,58.73S473,179,473,179s.76-8.8-3.06-21.23-2.3-56.44,5.16-68.11,22-22,26.59-27.74S514.43,43,507.74,32.1Z"/><path class="cls-3" d="M522.7,36.05s8.24,21.47,5.95,40.79-13.78,41.9-13.78,47.26a48.51,48.51,0,0,1-13.58,34.63A101.84,101.84,0,0,1,473,179s21.62-26.4,22.76-32.52,4.59-29.08,9.19-36.73,13.77-23.91,14.34-35.39-3.13-13.59-3.44-18.18C515.23,47.14,522.7,36.05,522.7,36.05Z"/><path class="cls-2" d="M486.8,118.91c5.28-1.62,6.41,2.82,5.16,5.16s-6.56,9.06-5.47,13.9-3.59,12.81-5.78,12.66-3.59-6.1-1.25-12.35.23-7.34,1.52-11.94C482.36,121.41,484.77,119.54,486.8,118.91Z"/><line class="cls-4" x1="490.78" y1="105.91" x2="492.88" y2="97.85"/><ellipse class="cls-2" cx="518.61" cy="27.87" rx="14.06" ry="11.63" transform="translate(299.18 498.6) rotate(-68.08)"/><ellipse class="cls-5" cx="518.61" cy="27.87" rx="14.06" ry="11.63" transform="translate(299.18 498.6) rotate(-68.08)"/><rect class="cls-2" x="511.24" y="26.72" width="7.65" height="15.5" rx="3.83" transform="translate(43.43 -175.38) rotate(20.16)"/></g></g></svg>