<svg id="SEXE" xmlns="http://www.w3.org/2000/svg" viewBox="0 0 290.96 218.42"><defs><style>.cls-1{fill:none;stroke:#000;stroke-linecap:round;stroke-miterlimit:10;stroke-width:3.75px;}.cls-2{fill:#547df0;}.cls-3{fill:#446dde;}</style></defs><title>zizi-content</title><g id="sexe_important_" data-name="sexe important?"><g id="zizi_triste" data-name="zizi triste"><path class="cls-1" d="M161.07,76.38a58,58,0,0,0,3.64,7.6c7,12.33,18.82,19.16,18.82,19.16"/><path class="cls-2" d="M269.32,10a21.35,21.35,0,0,0-2.23-1.73l-1.19-.78L265,6.83l0,0-5.65-3.7a19.31,19.31,0,0,0-26.71,5.58l-.17.27C144-2.74,76.39,46.88,48.83,116a51.24,51.24,0,1,0,45.8,78.43A51.24,51.24,0,1,0,138,115.94c-1.72,0-3.41.09-5.08.25C146.31,96.35,165.24,82,188.25,79a19.27,19.27,0,0,0,8.29,20.16l7.75,5.08a19.24,19.24,0,0,0,3.14,1.65A57.35,57.35,0,0,0,269.32,10Z"/><path class="cls-3" d="M207.19,105.73A57.34,57.34,0,0,0,269.08,9.84a19.07,19.07,0,0,0-2.22-1.73l-1.2-.78c-.29-.2-.58-.41-.89-.61v0L259.1,3a19.28,19.28,0,0,0-26.7,5.58L190.72,72.3A19.3,19.3,0,0,0,196.3,99l7.76,5.07A19.15,19.15,0,0,0,207.19,105.73Z"/><circle cx="225.97" cy="63.36" r="2.73"/><circle cx="256.58" cy="54.55" r="2.73"/><path class="cls-1" d="M142.15,76.29s-4.1,12.2,10.64,28.95c9.36,10.64,22.34,14.89,22.34,14.89"/><path class="cls-1" d="M215.78,58s1.7.85,5.11-.43a9.56,9.56,0,0,0,4.89-4.47"/><path class="cls-1" d="M251.67,44.05s1.16,1.51,4.78,1.85A9.6,9.6,0,0,0,262.8,44"/><path class="cls-1" d="M232.17,95a28,28,0,0,1,19.58-16c14.68-3.19,24.05-.64,24.05-.64"/></g></g></svg>