<svg id="SEXE" xmlns="http://www.w3.org/2000/svg" viewBox="0 0 196.2 339.86"><defs><style>.cls-1{fill:#e75c79;}.cls-2{fill:#eb3d5c;}.cls-3,.cls-4{fill:none;stroke:#000;stroke-linecap:round;stroke-miterlimit:10;}.cls-3{stroke-width:3.75px;}.cls-4{stroke-width:3.75px;}</style></defs><title>zizi-content</title><g id="sexe_important_" data-name="sexe important?"><g id="zizi_bande" data-name="zizi bande"><path class="cls-1" d="M143.08,233.62c-.54,0-1.08,0-1.61,0V92.54a21.43,21.43,0,0,0,19.29-21.32V60.92a21.87,21.87,0,0,0-.37-3.91,63.71,63.71,0,0,0-126.79.8,21.27,21.27,0,0,0-.25,3.11v1.59c0,.4,0,.8,0,1.2h0v7.51A21.42,21.42,0,0,0,53.54,92.59v141h-.42A53.12,53.12,0,1,0,98.1,315a53.12,53.12,0,1,0,45-81.37Z"/><path class="cls-2" d="M160.4,56.91a63.71,63.71,0,0,0-126.79.8,21.41,21.41,0,0,0-.25,3.12v1.58c0,.4,0,.8,0,1.2h0v7.51A21.42,21.42,0,0,0,54.79,92.55h84.55a21.43,21.43,0,0,0,21.43-21.43V60.83A22,22,0,0,0,160.4,56.91Z"/><circle cx="78.76" cy="40.31" r="2.73"/><circle cx="110.33" cy="40.31" r="2.73"/><path class="cls-3" d="M59.1,57.33c7.2-8.8,18.29,4.57,35.91,3.55s22.18-14.72,36.13-12.35-1.6,28.26-29,30.79S53.84,63.76,59.1,57.33Z"/><path class="cls-4" d="M66.88,29.63A9.84,9.84,0,0,1,72,26.38a9,9,0,0,1,6.22,1.27"/><path class="cls-4" d="M112.42,23.29a9.84,9.84,0,0,1,6,.84,9,9,0,0,1,3.9,5"/><path class="cls-4" d="M125.38,152c10.6,0,48.47-33.78,53-54"/><path class="cls-4" d="M67.45,148.61c-10.6,0-58.47-27.65-63-47.85"/></g></g></svg>