<svg xmlns="http://www.w3.org/2000/svg" viewBox="0 0 231.12 325.58"><defs><style>.cls-1{fill:#446dde;}.cls-2{fill:none;stroke:#000;stroke-linecap:round;stroke-miterlimit:10;stroke-width:3.75px;}</style></defs><title>fidélité-cadenas-couple</title><g id="FIDELITE"><g id="fidélité_" data-name="fidélité ?"><g id="cadena"><rect class="cls-1" x="8.19" y="128.35" width="204.09" height="160.06" rx="51.69" transform="translate(-7.2 3.97) rotate(-2)"/><path class="cls-2" d="M90.31,292s-1.55,30.1-2.71,31-8.46,1-10.22.12"/><path class="cls-2" d="M145.78,290.62s-1.52,32.29-3.27,32.9-9.49-.62-11-1.33"/><path class="cls-2" d="M29.53,239.26c-2,3.39-26.55,21.11-27.65,21.5"/><path class="cls-2" d="M198.08,231.25s20,17.61,31.16,20.78"/><circle cx="91.03" cy="198.12" r="4.64"/><path class="cls-2" d="M85.58,227.9c.7,5.51,5.63,10.57,14.29,12,8.87,1.47,14.28-.4,15.69-1.52"/><path class="cls-2" d="M87.92,195s7-3.26,18.68,2.38"/><circle cx="129.44" cy="199.01" r="4.64"/><path class="cls-2" d="M126.33,195.89s7-3.26,18.68,2.38"/><path class="cls-1" d="M172.12,78.07l0,0L149.58,37.38h0A69.64,69.64,0,1,0,27.88,105h0L72.3,185l19.48-10.83L47.36,94.2h0a47.69,47.69,0,1,1,83.31-46.31h0L153.39,88.8l0,0a10.77,10.77,0,0,0,20.1-5.39A10.64,10.64,0,0,0,172.12,78.07Z"/></g></g></g></svg>