<svg xmlns="http://www.w3.org/2000/svg" viewBox="0 0 431.56 297.09"><defs><style>.cls-1{fill:#e75c79;}.cls-2,.cls-4{fill:none;stroke:#000;stroke-miterlimit:10;stroke-width:3.75px;}.cls-2{stroke-linecap:round;}.cls-3{fill:#e12547;}</style></defs><title>fidélité-cadenas-couple</title><g id="FIDELITE"><g id="fidélité_" data-name="fidélité ?"><g id="cadenas"><rect class="cls-1" x="205.65" y="102.53" width="204.09" height="160.06" rx="51.69" transform="translate(-49.66 165.17) rotate(-27.89)"/><path class="cls-1" d="M304.58,32.55A69.63,69.63,0,0,0,196.83,118h0l42.59,80.91,19.73-10.39-42.59-80.9h0a47.69,47.69,0,1,1,84.34-44.39h0l42.59,80.9L362.63,134,320,53.09h0A69.41,69.41,0,0,0,304.58,32.55Z"/><path class="cls-2" d="M322.16,259.35s11.75,27.75,11.1,29.06-7.18,4.57-9.14,4.57"/><path class="cls-2" d="M371.46,233.88s12.74,29.71,11.43,31-8.82,3.59-10.45,3.59"/><path class="cls-2" d="M244.45,238.45c-.33,3.92-14.66,30.58-15.49,31.41"/><path class="cls-2" d="M392.57,157.63s25.68,7.11,37.12,5.08"/><circle cx="297.85" cy="167.44" r="4.64"/><circle cx="325.18" cy="156.91" r="4.64"/><path class="cls-2" d="M297.48,200.35c.72,5.5,14.84,8.61,23.22,6s14.36-7.42,13.41-13.17"/><rect class="cls-3" x="25.92" y="105.19" width="203.62" height="160.06" rx="51.69" transform="translate(90.56 -36.68) rotate(25.08)"/><circle cx="114.76" cy="158.48" r="4.64"/><circle cx="154.59" cy="175.07" r="4.64"/><path class="cls-4" d="M103.49,186.42c2.66-.53,4.65,1.35,13.1,11.26,5.63,6.6,15.49,8.27,19.62,8.79,3.57.44,4.17,5.17-2.81,5-3.75-.08-17.69-1.07-27.82-12.26C99,192,100.83,186.94,103.49,186.42Z"/><path class="cls-2" d="M1.88,178.68c3.39-6.78,28.93-17.47,35.71-17.47"/><path class="cls-2" d="M228.13,269.39c.82-15.63-12.28-31.5-17.65-35.63"/><path class="cls-2" d="M85,250.89s-2.35,24.77-4.69,25-13.56,0-17.21-2.87"/><path class="cls-2" d="M131.45,267.84s-7.82,16.42-7,19.81,9.9,7.3,11.73,7.56"/><path class="cls-3" d="M242,76A69.64,69.64,0,0,0,179,.29C148.33-2.53,125.11,15.22,113.45,42h0L74.75,124.86,95,134.29l38.68-82.85h0c7.86-18.62,22.46-31.06,43.66-29.11a47.71,47.71,0,0,1,38.07,69.24h0l-38.68,82.85,19.61,9.15L235,100.73h0A69.64,69.64,0,0,0,242,76Z"/><path class="cls-1" d="M248.32,37.09a47.8,47.8,0,0,0-31.61,22.68L200.53,44a70,70,0,0,1,5.68-7.07A69.24,69.24,0,0,1,242.09,16Z"/></g></g></g></svg>