<svg id="data_amour" data-name="data amour" xmlns="http://www.w3.org/2000/svg" viewBox="0 0 564.49 260.48"><defs><style>.cls-1{fill:#e75c79;}.cls-2{fill:#e12547;}</style></defs><title>reÌponse-oui-amour-03</title><g id="oui"><path class="cls-1" d="M301.15,124.41l24.73-22.24a46.9,46.9,0,0,1,68.59,64S369.94,193,363,195.61,301.15,124.41,301.15,124.41Z"/><path class="cls-2" d="M360,185.52l-59,52.87-48.18-29.52s-32.34-38-41.52-51S200.4,139.25,200.4,127.8a46.89,46.89,0,0,1,46.89-46.9c17.06,0,34.35,11.15,45.2,23.27S360,185.52,360,185.52Z"/><rect class="cls-1" x="297.2" y="100.26" width="23.84" height="66.06" rx="11.92" transform="translate(201.84 -185.79) rotate(48.09)"/><rect class="cls-2" x="305.53" y="188.61" width="21.3" height="52.98" rx="10.65" transform="translate(-63.48 260.88) rotate(-41.1)"/><rect class="cls-2" x="320.42" y="173.96" width="21.3" height="52.98" rx="10.65" transform="translate(-50.18 267.05) rotate(-41.1)"/><rect class="cls-2" x="335.33" y="158.83" width="21.3" height="52.98" rx="10.65" transform="translate(-36.56 273.13) rotate(-41.1)"/><rect class="cls-1" x="247.92" y="176.18" width="21.3" height="45.15" rx="10.65" transform="translate(230.01 -126.12) rotate(47.43)"/><rect class="cls-1" x="263.66" y="189.87" width="21.3" height="45.15" rx="10.65" transform="translate(245.18 -133.29) rotate(47.43)"/><rect class="cls-1" x="278.55" y="204.5" width="21.3" height="45.15" rx="10.65" transform="translate(260.77 -139.52) rotate(47.43)"/><rect class="cls-1" x="293.88" y="219.18" width="21.3" height="45.15" rx="10.65" transform="translate(276.54 -146.06) rotate(47.43)"/><circle class="cls-2" cx="89.71" cy="150.13" r="89.71"/><rect class="cls-2" x="436.02" y="106.61" width="93.32" height="132.34" rx="46.66" transform="translate(74.42 -137.31) rotate(17.52)"/><circle class="cls-2" cx="523.43" cy="41.06" r="41.06"/></g></svg>