<svg xmlns="http://www.w3.org/2000/svg" viewBox="0 0 571.8 184.48"><defs><style>.cls-1{fill:#446dde;}.cls-2{fill:#e12547;}.cls-3{fill:#fff;}</style></defs><title>réponse-non</title><g id="APPLI"><g id="non"><path class="cls-1" d="M179.65,105.26a105,105,0,0,0-4.84-22.1C168,62.85,154.86,45.33,137.88,33.83A84.92,84.92,0,0,0,79.65,19.68a87.93,87.93,0,0,0-53.51,28.2,101.42,101.42,0,0,0-25.49,57A105.47,105.47,0,0,0,.62,128c1.8,16.66.44,5.73,2.33,23.63H3c2.3,20.44,19.42,35.05,38.33,32.65s32.44-20.86,30.34-41.31h0c0-.21-2.07-19.7-2.49-23.66a24.65,24.65,0,0,1,0-5.43C70.38,103.35,78,95.19,87.68,94s18.89,4.84,22.23,14.79a25,25,0,0,1,1.14,5.2c.18,1.69,1.64,14.47,2.53,22,0,.47.07.93.12,1.41.09.81.21,1.61.35,2.4.06.5.11.92.15,1.21h.06c3.71,18.53,19.88,31.33,37.63,29.08s30.79-18.8,30.4-37.78l.28,0S180.66,114.6,179.65,105.26Z"/><path class="cls-1" d="M571.65,116.8a106.08,106.08,0,0,0-1.23-22.68,100.39,100.39,0,0,0-28.5-55.49,87,87,0,0,0-55.09-24.85,85.51,85.51,0,0,0-57.21,17.76C413.33,44,401.18,62.27,395.41,82.89a105.17,105.17,0,0,0-3.72,22.73c-.88,16.75-.48,5.73-1.47,23.71h.07c-1,20.56,13.53,38.15,32.54,39.33s35.28-14.47,36.47-35h0c0-.21,1.11-19.79,1.32-23.77a24.91,24.91,0,0,1,.87-5.35c2.82-10.09,11.6-16.71,21.36-16.11s17.83,8.31,19.53,18.73a25,25,0,0,1,.29,5.34c-.09,1.7-.7,14.56-1,22.15,0,.47-.08.94-.11,1.41,0,.82-.05,1.63,0,2.43,0,.51,0,.93,0,1.22h.07c.69,18.95,14.57,34.58,32.41,35.69s33.33-12.75,36-31.52l.28,0S571.15,126.18,571.65,116.8Z"/><rect class="cls-1" x="202.77" y="15.07" width="165.86" height="165.86" rx="41.11"/><circle class="cls-2" cx="348.38" cy="28.4" r="28.4"/><path class="cls-3" d="M360.48,26.41h0a6.32,6.32,0,0,0,.38-2.13,6.24,6.24,0,0,0-12.48,0v.13h0v-.14a6.24,6.24,0,1,0-12.09,2.16h0c2.39,6.21,12.1,12.34,12.1,12.34h0s9.31-6.06,11.91-11.89c0-.12.11-.25.16-.38Z"/></g></g></svg>