<svg xmlns="http://www.w3.org/2000/svg" viewBox="0 0 412.52 307.65"><defs><style>.cls-1{fill:#e12547;}.cls-2{fill:#e75c79;}.cls-3{fill:none;stroke:#000;stroke-linecap:round;stroke-miterlimit:10;stroke-width:3.75px;}</style></defs><title>fidélité-cadenas-couple</title><g id="APPLI"><g id="appli_" data-name="appli?"><g id="tel_couple" data-name="tel couple"><path class="cls-1" d="M141.74,254.53l-71,23.14c-9.48,3.1-18.06-3.19-19.15-14.05L31.11,61.72C30,50.88,36.8,39.58,46.28,36.5l71-23.16c9.48-3.09,18.06,3.2,19.15,14.05l20.45,201.9C158,240.14,151.22,251.44,141.74,254.53Z"/><path class="cls-2" d="M133.19,217.87l-63,20.87c-8.4,2.79-16-2.88-17-12.67L37.9,64.5c-1-9.78,5.05-20,13.45-22.76l63-20.89c8.4-2.78,16,2.9,17,12.68L146.65,195.1C147.62,204.89,141.59,215.08,133.19,217.87Z"/><circle cx="69.53" cy="78.34" r="4.64"/><circle cx="96.82" cy="69.47" r="4.64"/><path class="cls-3" d="M121.38,233.3s1.08,11.35-13.24,15.68c0,0-11.35,3.78-19.46-4.6"/><path class="cls-3" d="M43.18,151.77C18.41,158-.44,134.26,2.11,124.2"/><path class="cls-3" d="M87.6,267.3s3.83,37.25,6.3,38.35,26.57-5.75,29.58-6.3"/><path class="cls-3" d="M131.7,252s0,26.3,3.29,27.39,23-4.11,26-4.65"/><path class="cls-1" d="M211.14,102.39a12.87,12.87,0,0,0-23.55-7.19A12.88,12.88,0,0,0,164,102.39a12.73,12.73,0,0,0,.9,4.71h0c.71,5.25,22.64,22.35,22.64,22.35s21.81-17.46,22.6-22.16A12.71,12.71,0,0,0,211.14,102.39Z"/><path class="cls-3" d="M142.81,126.61c8,2.54,24,5.78,38.56-12.85"/><path class="cls-1" d="M273.1,237.52l79.19,15.38c10.56,2,19.31-4.39,19.53-14.41l4.06-207.17c.23-10-8.17-19.79-18.73-21.83L277.92.38c-10.57-2-19.31,4.4-19.53,14.41l-4,200.88C254.14,225.69,262.54,235.46,273.1,237.52Z"/><path class="cls-2" d="M277.86,204.12l69.87,12.4c9.32,1.66,17-3.54,17.23-11.61l3.59-171c.2-8.06-7.21-15.95-16.53-17.6L283.16,8c-9.31-1.66-17,3.55-17.22,11.61l-4.61,166.88C261.13,194.59,268.54,202.47,277.86,204.12Z"/><circle cx="321.57" cy="66.27" r="4.64"/><circle cx="293.27" cy="62.41" r="4.64"/><path class="cls-3" d="M283.13,217.94s.75,11.38,15.58,13.35c0,0,11.81,1.92,18.47-7.65"/><path class="cls-3" d="M327.92,246s5.22,37.08,3.09,38.74-27.17.8-30.23,1"/><path class="cls-3" d="M281.8,235.91s3.8,26,.71,27.58-23.36-.74-26.42-.85"/><path class="cls-3" d="M259.11,123.47c-5.35,6.52-23.25,10.54-42.38-6.9"/><path class="cls-3" d="M371.12,139.77c8.05,2.54,33,4.91,39.52-20.15"/></g></g></g></svg>