<svg xmlns="http://www.w3.org/2000/svg" viewBox="0 0 423.94 263.25"><defs><style>.cls-1{fill:#e12547;}.cls-2{fill:none;stroke:#000;stroke-linecap:round;stroke-miterlimit:10;stroke-width:3.75px;}.cls-3{fill:#e75c79;}.cls-4{fill:#e85174;}.cls-5,.cls-8{fill:#e74772;}.cls-6{fill:#e96e81;}.cls-7{fill:#e13655;}.cls-8,.cls-9{opacity:0.52;}</style></defs><title>fidèle-non</title><g id="MARIAGE"><g id="mariage_" data-name="mariage?"><g id="bague_2" data-name="bague 2"><path class="cls-1" d="M102.1,73a85.68,85.68,0,1,0,85.68,85.68A85.68,85.68,0,0,0,102.1,73Zm-.54,149.92a64.51,64.51,0,1,1,64.51-64.51A64.51,64.51,0,0,1,101.56,222.91Z"/><path class="cls-2" d="M40.07,201.8s2.83,48.23.47,50.59-35.93-7.56-37.82-7.56,0,8,0,8"/><path class="cls-2" d="M163.46,204.17s30.25-.47,35,1.89-1.89,53.42,0,54.37,12.29.94,12.29.94"/><path class="cls-2" d="M359.38,167.12s2.84,88.4-.94,88.88-14.18-.48-14.18-.48"/><path class="cls-2" d="M284.39,113.12s-14.59,3-19.08.75-6-20.58-4.12-29.56"/><path class="cls-3" d="M348.14,25.25a75.81,75.81,0,1,0,75.8,75.81A75.8,75.8,0,0,0,348.14,25.25Zm-.47,130.23a54.66,54.66,0,1,1,54.65-54.66A54.66,54.66,0,0,1,347.67,155.48Z"/><path class="cls-2" d="M328.65,168.06s2.84,88.41-.94,88.88-14.18-.47-14.18-.47"/><path class="cls-2" d="M281.77,126.59s-22.07,2.62-26.56.37-9-25.44-7.11-34.42"/><path class="cls-4" d="M116.35,88.6c4.08,2.32,20.17,2.33,22.9,1.19S175.62,34.14,175,32.65s-35,8.82-35,8.82l-29.42-.78S82.78,29.9,80.8,30.73,103.37,81.23,116.35,88.6Z"/><path class="cls-5" d="M139.25,89.79C142,88.65,175.62,34.14,175,32.65s-35,8.82-35,8.82"/><path class="cls-5" d="M110.57,40.69S82.78,29.9,80.8,30.73s22.57,50.5,35.55,57.87"/><path class="cls-6" d="M80.8,30.74s16.89-7.81,19.41-8.57,37.65-.66,40.1.55S175,32.65,175,32.65l-29.08,12.2-35.28,1.51Z"/><circle cx="132.72" cy="51.84" r="2.73"/><circle cx="148.81" cy="49.93" r="2.73"/><path d="M143.51,69.09a14.47,14.47,0,0,1-3.61,1l-.35.05a7.37,7.37,0,0,1-1.9-.14,10.47,10.47,0,0,1-7.5-5.53,1.88,1.88,0,0,1,3.32-1.76,6.79,6.79,0,0,0,5.76,3.68l.15,0,.22,0,.13,0c3.34-.56,6.05-2.56,8.06-5.93A1.88,1.88,0,0,1,151,62.28,16.2,16.2,0,0,1,143.51,69.09Z"/><path class="cls-7" d="M285.42,69.07c4.64-.67,17.3-15.11,18.75-17.68s-.84-47.51-2.24-48.3S270,7.19,270,7.19l-31.94,24S227.2,48.5,226.14,50.37,270.64,71.2,285.42,69.07Z"/><path class="cls-1" d="M304,51.11c1.45-2.57.85-50.26-.55-51S270,7.18,270,7.18"/><path class="cls-1" d="M238,31.11S227.2,48.5,226.14,50.37s44.5,20.83,59.28,18.7"/><circle cx="240.63" cy="43.53" r="2.73"/><path class="cls-8" d="M251.65,54c-.08-1.15-.73-1.34-1.11-1.35a1.13,1.13,0,0,0-1.17,1.11,15,15,0,0,1-2.65,6.28c1.35.51,2.73,1,4.12,1.51A23.2,23.2,0,0,0,251.65,54Z"/><path d="M255.39,53.76a4.89,4.89,0,0,0-9.75-.4,12.61,12.61,0,0,1-2.53,5.33c1.17.46,2.38.92,3.61,1.38a15,15,0,0,0,2.65-6.28,1.13,1.13,0,0,1,1.17-1.11c.38,0,1,.2,1.11,1.35a23.2,23.2,0,0,1-.81,7.55l3.56,1.23A31.31,31.31,0,0,0,255.39,53.76Z"/><path class="cls-9" d="M255.39,53.76a4.89,4.89,0,0,0-9.75-.4,12.61,12.61,0,0,1-2.53,5.33c1.17.46,2.38.92,3.61,1.38a15,15,0,0,0,2.65-6.28,1.13,1.13,0,0,1,1.17-1.11c.38,0,1,.2,1.11,1.35a23.2,23.2,0,0,1-.81,7.55l3.56,1.23A31.31,31.31,0,0,0,255.39,53.76Z"/><rect class="cls-1" x="210.56" y="124.04" width="23.74" height="13.38" rx="2.71"/><rect class="cls-1" x="206.25" y="115.45" width="23.04" height="6.95" rx="2.35" transform="translate(19.5 268.11) rotate(-65.6)"/><path class="cls-2" d="M178.59,149.8c5.67-.47,27.69-5,39.51-17.31"/></g></g></g></svg>