<svg xmlns="http://www.w3.org/2000/svg" viewBox="0 0 399.16 252"><defs><style>.cls-1{fill:#446dde;}.cls-2{fill:none;stroke:#000;stroke-linecap:round;stroke-miterlimit:10;stroke-width:3.75px;}.cls-3{fill:#6289c6;}.cls-4{fill:#4f81bf;}.cls-5{fill:#7997c6;}.cls-6{opacity:0.5;}</style></defs><title>fidèle-non</title><g id="MARIAGE"><g id="mariage_" data-name="mariage?"><g id="bague_seul" data-name="bague seul"><path class="cls-1" d="M237.74,48.79a93.35,93.35,0,1,0,93.35,93.35A93.34,93.34,0,0,0,237.74,48.79Zm-.58,164.1a71,71,0,1,1,71-71A71,71,0,0,1,237.16,212.89Z"/><path class="cls-2" d="M165.57,187.18S129.35,231.29,127,233.65s-52.6-17.11-54.49-17.11-7,11.41-7,11.41"/><path class="cls-2" d="M306.3,191.2s48.25,1.88,53,4.24-13.93,52.79-12,53.74,12.3.94,12.3.94"/><path class="cls-3" d="M266.89,64.36c3.58,3,19.39,6,22.28,5.42s50.59-44,50.25-45.58-36,2.16-36,2.16l-28.77-6.24s-25.3-15.75-27.4-15.31S255.51,54.71,266.89,64.36Z"/><path class="cls-4" d="M289.17,69.78c2.89-.61,50.59-44,50.25-45.58s-36,2.16-36,2.16"/><path class="cls-4" d="M274.62,20.12s-25.3-15.75-27.4-15.31,8.29,49.9,19.67,59.55"/><path class="cls-5" d="M247.23,4.82S265.27.28,267.89,0,305,6.35,307.18,8s32.26,16.2,32.26,16.2l-30.85,6.58-34.94-5.07Z"/><circle cx="312.5" cy="36.61" r="2.73"/><circle cx="321.44" cy="35.81" r="2.73"/><path class="cls-2" d="M190.63,73.94s-68.42,14.87-70.79,17.24S91.66,136,89.77,136"/><path class="cls-2" d="M313,100.6s40,40.77,42.4,43.13,40.7-39.19,41.86-40.68"/><path class="cls-1" d="M109.42,36.64h0a3.77,3.77,0,0,1-5.26.89S65.73,8.22,66.93,6.52h0c1.21-1.7,41.6,24.86,41.6,24.86A3.77,3.77,0,0,1,109.42,36.64Z"/><path class="cls-1" d="M70.36,68.53h0a3.78,3.78,0,0,1-4.79,2.36S20.37,53.76,21,51.79h0c.67-2,47,12,47,12A3.78,3.78,0,0,1,70.36,68.53Z"/><path class="cls-1" d="M51.44,138.63h0a3.76,3.76,0,0,1-3.14,4.31s-48,5.88-48.3,3.82H0c-.32-2.06,47.12-11.27,47.12-11.27A3.77,3.77,0,0,1,51.44,138.63Z"/><path d="M305.34,45.44a1.88,1.88,0,0,0,.84,3.56,1.92,1.92,0,0,0,.84-.2c2.41-1.2,4.15-1.75,8.14-1.14,1.17-1,2.32-2.11,3.47-3.16C311.82,43,309.1,43.57,305.34,45.44Z"/><path class="cls-6" d="M305.34,45.44a1.88,1.88,0,0,0,.84,3.56,1.92,1.92,0,0,0,.84-.2c2.41-1.2,4.15-1.75,8.14-1.14,1.17-1,2.32-2.11,3.47-3.16C311.82,43,309.1,43.57,305.34,45.44Z"/></g></g></g></svg>