<svg xmlns="http://www.w3.org/2000/svg" viewBox="0 0 564.49 240.35"><defs><style>.cls-1{fill:#e12547;}.cls-2{fill:#e85174;}.cls-3{fill:#e74772;}.cls-4{fill:#e96e81;}</style></defs><title>reÌponse-oui-mariage</title><g id="MARIAGE"><g id="oui-3" data-name="oui"><rect class="cls-1" x="436.02" y="106.61" width="93.32" height="132.34" rx="46.66" transform="translate(74.42 -137.31) rotate(17.52)"/><circle class="cls-1" cx="523.43" cy="41.06" r="41.06"/><path class="cls-1" d="M414.73,101a41.31,41.31,0,1,0-79,23.56l-.09,0a25.17,25.17,0,1,1-48.92,10.35,26,26,0,0,1,.07-5.3,41.31,41.31,0,1,0-81.67-12.08A107.72,107.72,0,1,0,414.73,101Z"/><path class="cls-1" d="M89.71,60.42a89.71,89.71,0,1,0,89.71,89.71A89.71,89.71,0,0,0,89.71,60.42Zm0,141.11a51.4,51.4,0,1,1,51.4-51.4A51.4,51.4,0,0,1,89.71,201.53Z"/><path class="cls-2" d="M86.24,75.12c3.25,1.95,16.25,2.24,18.47,1.37S135.07,32.18,134.6,31s-28.43,6.51-28.43,6.51L82.42,36.32s-22.26-9.2-23.87-8.57S75.89,68.94,86.24,75.12Z"/><path class="cls-3" d="M104.71,76.49c2.22-.87,30.36-44.31,29.89-45.52s-28.43,6.51-28.43,6.51"/><path class="cls-3" d="M82.42,36.32s-22.26-9.2-23.87-8.57S75.89,68.94,86.24,75.12"/><path class="cls-4" d="M58.55,27.76s13.78-6,15.83-6.57,30.42.13,32.37,1.15S134.61,31,134.61,31L110.9,40.31l-28.52.6Z"/></g></g></svg>