<svg xmlns="http://www.w3.org/2000/svg" viewBox="0 0 212.18 373.21"><defs><style>.cls-1{fill:#446dde;}.cls-2{fill:#6289c6;opacity:0.51;}.cls-3{fill:#87a5d4;}</style></defs><title>ovaire</title><g id="ENFANTS"><g id="enfants_" data-name="enfants?"><g id="capote"><path class="cls-1" d="M113,96a28.82,28.82,0,0,0-13.69,19.38h0c-1.45,3.31-8.25,32.87-1.33,48.53a2.53,2.53,0,0,0,0,1.49c.42,1.18-1.23,2.78-3.61,4.92-2,1.77-4,3.59-4.9,5.87-1.26,3.07-1.1,7.55-1,11.51a33.84,33.84,0,0,1,0,4.32c-.87,1.3-6,6.16-9.36,9.4-2.6,2.48-5.29,5-7.15,7-3.2,3.29-5.53,9.24-7.59,14.49-1.26,3.21-2.68,6.85-3.69,7.93-3.13,3.35-8.69,10.8-8.93,11.11A2.5,2.5,0,0,0,55,245.54a2.84,2.84,0,0,0,.73-.66c0-.08,5.62-7.54,8.56-10.69,1.67-1.77,3-5.19,4.7-9.51,1.79-4.58,4-10.27,6.52-12.83,1.79-1.84,4.45-4.38,7-6.82,6.91-6.6,9.79-9.44,10.49-11,.57-1.29.53-3.13.41-6.53-.11-3.1-.27-7.36.58-9.43.5-1.23,2.09-2.66,3.63-4,1.93-1.73,4.16-3.76,5-6.21,9.37.47,32.28-12.25,44.9-26A28.9,28.9,0,0,0,113,96Z"/><circle cx="132.37" cy="110.3" r="3.41"/><path d="M131.12,134.51c-.19.34-.38.66-.56,1a2.22,2.22,0,1,0,3.82,2.26l.59-1c3-5.27,7.95-8.94,18.71-3.37a29.31,29.31,0,0,0,1.61-4.14C140,122.22,134.21,129.13,131.12,134.51Z"/><path class="cls-2" d="M9.39,351.91c9.78-21.78,37.78-232,41.34-248S67.62,58.57,91.62,54.12s25.16-23.61,25.16-29.39S115.71,2.56,124.51.34c7-1.75,13.61,3.26,14.31,13.15.66,9.25,1,32.44,8.07,38.34C160.83,63.38,177.7,74.06,183,94.46c7.71,29.45,3.07,231.37,14.65,260C199.12,358,9.39,351.91,9.39,351.91Z"/><path class="cls-3" d="M193.53,370s-55.21,3.43-88.23,3.17-89-2.12-89-2.12C5.71,371.35,0,365.87,0,360H0a10.57,10.57,0,0,1,10.57-10.57s57.75-1.09,91-1.62,100,1.62,100,1.62A10.57,10.57,0,0,1,212.18,360h0C212.18,365.87,206.21,369,193.53,370Z"/></g></g></g></svg>