<svg xmlns="http://www.w3.org/2000/svg" viewBox="0 0 407.29 308.28"><defs><style>.cls-1{fill:#e12547;}.cls-2{fill:#e13a59;}.cls-3,.cls-4{fill:none;stroke:#000;stroke-linecap:round;stroke-miterlimit:10;}.cls-3{stroke-width:3.69px;}.cls-4{stroke-width:3.96px;}.cls-5{fill:#e75c79;}</style></defs><title>ovaire</title><g id="ENFANTS"><g id="enfants_" data-name="enfants?"><g id="ovaire"><circle class="cls-1" cx="290.27" cy="117.02" r="117.02"/><circle class="cls-2" cx="290.27" cy="117.02" r="102.87"/><circle cx="248.11" cy="90.17" r="4.19"/><circle cx="297.01" cy="95.87" r="4.19"/><path class="cls-3" d="M250.83,89.38s.25-3.91-6.24-2.46c-5.76,1.27-8,1.89-10.23-1.33"/><path class="cls-3" d="M293.84,93.67s.53-3.88,6.61-1.18c5.39,2.39,7.42,3.42,10.28.72"/><path class="cls-4" d="M230.4,119.73c5.22-3.59,13.25,7,21.44,10.18,17.06,6.69,31,3.78,37.15,4.46s11,3.13,10.38,8c-1.14,9.2-14.07,9.78-24.11,10.54-12,.92-28.36-3-39.32-14.93C228.68,130.07,227.91,121.44,230.4,119.73Z"/><path class="cls-4" d="M199.4,123.22c-8.63-.56-45.11-5-52.35-22.83"/><path class="cls-4" d="M339.94,167.68c-7.51,3.62-34.52,15.32-61.53,6.68"/><path class="cls-5" d="M190.64,165.5a24.37,24.37,0,0,0-18.27,8.22h0c-2.46,1.78-20.09,20.37-21.76,34.72a2.14,2.14,0,0,0-.61,1.1c-.21,1-2.09,1.5-4.74,2-2.17.44-4.42.9-6.08,2.16-2.23,1.7-4,5-5.62,8a27.58,27.58,0,0,1-1.85,3.14c-1.19.58-7,1.93-10.84,2.83-3,.69-6,1.4-8.18,2-3.74,1-8,4.35-11.73,7.29-2.29,1.79-4.89,3.83-6.09,4.18-3.71,1.09-10.94,4.13-11.25,4.26a2.11,2.11,0,0,0,.82,4.05,2,2,0,0,0,.82-.17c.07,0,7.31-3.07,10.8-4.09,2-.58,4.41-2.5,7.5-4.92,3.26-2.55,7.32-5.74,10.24-6.53,2.09-.57,5.11-1.28,8-2,7.85-1.83,11.16-2.66,12.34-3.5,1-.69,1.73-2,3.1-4.57,1.25-2.31,3-5.47,4.46-6.61a12.4,12.4,0,0,1,4.37-1.39c2.15-.44,4.65-.95,6.31-2.38,6.61,4.36,28.73,4.93,43.8.34a24.4,24.4,0,0,0-5.55-48.16Z"/><circle cx="195.47" cy="183.28" r="2.88"/><path d="M204.09,198c-5.55-.51-7.84-3.34-7.89-3.39a2,2,0,0,0-2.64,2.95c.25.22,3.29,3.75,10.17,4.37.6.06,1.2.08,1.81.08a30.63,30.63,0,0,0,6.75-.84,23.94,23.94,0,0,0,1.83-4.61A27.86,27.86,0,0,1,204.09,198Z"/><path class="cls-5" d="M172.81,267.38a1.47,1.47,0,0,1,2-.59,15.63,15.63,0,0,0,8.18,1.57A13.43,13.43,0,0,0,170,246c-3.87,1-7.79,4.57-9.9,7.82-1.77,2.74-9.74,11-9.25,26.14-2.06,1.3-6.24,2.29-9.18,3l-1.37.33c-4.77,1.17-5,5.92-5.19,9.06,0,.32,0,.64,0,.93-.16,2.34-2,5.87-5,9.46-1.65,2,1.88,0-6,3.37a1.16,1.16,0,0,0,.9,2.14c2.16-.9,4.39-.93,7-4,1.55-1.89,5.2-6.73,5.47-10.77l.06-1c.18-3.5.55-6.23,3.42-6.93l1.36-.33c4-1,8.5-2,10.72-3.91,5.21-.15,18.91-5.77,26.16-10.09a16.34,16.34,0,0,1-5.72-1.79A1.47,1.47,0,0,1,172.81,267.38Z"/><path d="M183,268.36a15.63,15.63,0,0,1-8.18-1.57,1.47,1.47,0,1,0-1.41,2.58,16.34,16.34,0,0,0,5.72,1.79l.55-.32A13.39,13.39,0,0,0,183,268.36Z"/><path class="cls-5" d="M64.45,207.83a1.63,1.63,0,0,1-.69-3.18c1.62-.35,3.68.47,6.12,2.44a28,28,0,0,1,2.53,2.37,15.44,15.44,0,0,0-7.6-29.07c-4.6.11-9.92,3.07-13.14,6.16-2.7,2.59-15.21,12.94-14.56,27.66l-.3.43a16.71,16.71,0,0,1-6.61,5.92c-1,.51-2.49,1.2-4.22,2-7.69,3.64-20.56,9.74-25.46,13.48a1.34,1.34,0,0,0,.82,2.4,1.33,1.33,0,0,0,.81-.28c4.66-3.57,17.38-9.59,25-13.18l4.25-2a19.23,19.23,0,0,0,7.6-6.78l0,0c5.32,1.25,20.78-2.32,30.05-5.39l.07,0c-.42-.39-.85-.77-1.29-1.13C65.81,208,64.71,207.79,64.45,207.83Z"/><path d="M69.88,207.09c-2.44-2-4.5-2.79-6.12-2.44a1.63,1.63,0,0,0,.69,3.18c.26,0,1.36.16,3.38,1.79.44.36.87.74,1.29,1.13a14.91,14.91,0,0,0,3.29-1.29A28,28,0,0,0,69.88,207.09Z"/><circle cx="64.65" cy="193.16" r="2.56"/><circle cx="174.97" cy="256.51" r="2.17"/></g></g></g></svg>