<svg xmlns="http://www.w3.org/2000/svg" viewBox="0 0 551.8 240.35"><defs><style>.cls-1{fill:#e12547;}.cls-2{fill:#d41739;}.cls-3{fill:#e75c79;}</style></defs><title>reÌponse-oui-bebe</title><g id="ENFANTS"><g id="OUI-2" data-name="OUI"><rect class="cls-1" x="423.33" y="106.61" width="93.32" height="132.34" rx="46.66" transform="translate(73.83 -133.49) rotate(17.52)"/><circle class="cls-1" cx="510.74" cy="41.06" r="41.06"/><path class="cls-1" d="M402,101a41.31,41.31,0,1,0-79,23.56l-.09,0a25.17,25.17,0,1,1-48.85,5.05,41.31,41.31,0,1,0-81.67-12.08A107.72,107.72,0,1,0,402,101Z"/><path class="cls-2" d="M143.76,139a49.62,49.62,0,0,1-70.62,68.81l-20.35,8.86A70.09,70.09,0,0,0,157.61,123.6Z"/><ellipse class="cls-1" cx="84.4" cy="147.61" rx="99.04" ry="61.5" transform="translate(-77 94.12) rotate(-41.91)"/><path class="cls-3" d="M109.45,126.51c-4-3.23-10.69-1-18.21-7-7.28-5.87-15.77-22.3-19-27.65a33.53,33.53,0,1,0-41.66,46.46C41.4,145,57,155.52,58.19,161.13c1.79,8.44-2.58,15.07.51,19.26S83.4,177,98.52,160.51C115.28,142.24,114.51,130.63,109.45,126.51Z"/></g></g></svg>